<svg version="1" xmlns="http://www.w3.org/2000/svg" width="1574.667" height="1574.667" viewBox="0 0 1181.000000 1181.000000"><path d="M1070 65.6c-7.2 1.9-17.2 6.6-23.2 10.9L1042 80l-7.1-3.5c-15.9-8-35.3-12.4-49.5-11.1-19.5 1.8-37.7 10.8-52 25.7-7.6 8-11.4 13.7-16.4 24.1-5.7 11.9-7.4 19.4-7.4 31.8.1 23.3 8.4 45.3 23.1 61.1l4.3 4.6-4.6 13.4c-10.6 31.1-17.6 46.3-29.4 63.8-9.9 14.9-11 17.1-11 22.3 0 5.4 2.1 8.5 7.4 10.9 6.4 2.9 15.6 2.4 38.1-2 32.3-6.4 51.9-14.5 66.4-27.6l4-3.6 5.6 4.5c6.8 5.6 12.7 8.7 22.5 11.8 6.4 2 9.5 2.3 22 2.3 15.5 0 22.6-1.3 34.5-6.2 20.8-8.7 39.3-29.7 46.6-53.3 2-6.3 2.4-9.5 2.3-20-.1-14.4-1.8-22-8.2-36.7l-3.9-9.2 5.8-5.7c11.3-11.2 16.9-26.4 16.9-45.9 0-18.2-4.2-31-13.7-41.5-5.2-5.8-20-16.1-28.8-20.1-12.8-5.8-27.8-7.4-39.5-4.3zM377.8 120c-34.6 7.1-62.6 14.2-67.1 17.1-4.2 2.7-7.7 8.9-7.7 13.7 0 7.9 11 36.2 34.8 88.9 8.3 18.5 9.7 22.3 8.3 22.7-.9.3-55.6 12.7-121.6 27.6-66 14.9-131 29.6-144.5 32.7-13.5 3-26.7 6.4-29.4 7.4-25.4 10.1-38.8 38.1-31.6 66.3 2.8 11.1 7.3 19 15.5 27.1 8.1 8.1 16.1 12.4 27.9 15 13.5 3 21 2 76.1-10.4 123.3-27.7 485.2-110.3 572-130.6 36.7-8.5 42-10 50.5-14.1 7.7-3.8 10.9-6.1 17.1-12.3 11.6-11.6 15.8-21.8 15.9-38.1 0-24.6-13.6-43.6-37.8-52.8-6.1-2.4-8.1-2.6-21.2-2.6h-14.5L636 196.7c-46.5 10.6-110.3 25.1-141.9 32.2-31.6 7.2-57.7 12.8-58 12.6-.2-.3-1.5-19.1-2.7-41.8-3-53.9-3.9-64.4-6.4-71-3.4-9.1-10.3-13.8-20.2-13.6-2.9 0-16 2.2-29 4.9zM256.7 452c-17.2 1.7-28.8 7.9-34.2 18.5l-3 5.9-.3 40.3-.3 40.3h-54.8c-51.5 0-55.3.1-62.6 2-15.7 4-28.9 14-35.1 26.5-8.3 16.7-8.3 38.2 0 55 4.3 8.7 15.2 20.7 23.1 25.5 11.4 6.8 12.5 6.9 75.3 6.9l56.2.1v89.2c0 96.6.1 98.7 5.5 117.3 3.3 11.4 10.8 27.3 17.7 37.2 7.4 10.7 21.4 25.1 32.9 33.8 21.7 16.4 46.1 27.2 75.6 33.8l9.8 2.1 239.5.4c243.8.3 248 .3 266-3.4 19.7-4 47-15.5 64.2-27.1 28.6-19.2 47.5-43.2 57.3-72.6 6.6-19.8 6.5-18.5 6.5-119.4v-91.2l58.8-.3c67.5-.4 62.9.2 78.8-10.5 20.3-13.6 29.3-30.1 28.1-51.8-1.3-24.7-17.4-43.7-43.9-51.7-7.1-2.1-8.8-2.2-63.5-2.6l-56.3-.3v-38.8c0-43.2-.2-44.4-6.6-52-4.7-5.4-10.3-8.6-20-11.3l-7.9-2.3-349.5-.1c-192.2-.1-353 .2-357.3.6zm377.9 83.1c12.1 5.7 17.4 12.6 17.4 22.7 0 4.2-3.5 7.8-8.5 8.8-5.3 1-8.2-.7-9.5-5.6-2.6-9.5-13-15.5-22.8-13-5.2 1.3-7.7 3.1-9.9 7.4-3.7 7.1 1.1 13.5 20.7 28.3 22.8 17.2 26.7 22.2 27.7 35.8.5 6.7.3 8-2.2 13-5.1 10.6-15.9 16-31.5 16-8.5-.1-10.2-.4-16-3.1-6.9-3.3-16-11.6-19.2-17.6-1.8-3.4-2.4-10.4-1-12.5 1.6-2.6 9.7-4.2 13.6-2.7.8.3 2.2 2.8 3.1 5.4 2 6.1 8.6 12.4 14.6 14 8.7 2.4 15.8-.4 19.2-7.3 4-7.9-1.7-15.5-19.3-25.7-12-7-22.9-17.4-26.7-25.6-5.2-11.1-3.2-22.7 5.8-32.9 6.9-7.8 15.3-10.7 28.4-9.8 6.5.4 9.5 1.2 16.1 4.4zm-70.1-2.1c7.3 1.7 10.6 8.2 6.6 13.1-1.6 2-3 2.4-9.6 2.7l-7.7.4.4 38.5c.3 32.4.6 38.6 1.8 39.3.8.6 4.1 1 7.3 1 5.2 0 6.2.4 8.9 3 2.6 2.7 3 3.6 2.5 6.8-.4 2.2-1.7 4.6-3.1 5.9-2.5 2.1-3.2 2.1-27.1 2l-24.7-.2-2.4-2.8c-1.6-1.9-2.4-4-2.4-6.7 0-3.3.4-4.2 2.9-5.5 1.6-.8 6.1-1.8 9.9-2.1l7-.7.4-35.6c.1-19.6.1-37.1-.1-38.9l-.3-3.2h-6.9c-8 0-10.9-1.1-13.2-5-2.2-3.7-2.1-6.2.2-9.1 1.8-2.3 2.6-2.4 18.3-3 26.6-.9 27.1-.9 31.3.1zm225 .5c14.6 3.8 23.6 10.9 29.7 23.2l3.3 6.8V582c0 14.5-.4 19.9-1.8 25-4.1 15.1-10.1 23.8-20.5 29.9-9.5 5.6-18.2 8.3-26.8 8.3-7.8 0-10.1-.8-20.1-7.5-7.7-5.1-14.2-14.5-17.9-26-3.5-10.8-4.4-29.6-2-40.1 4.4-18.5 17.8-34.3 32.5-38.2 6.4-1.8 16.6-1.7 23.6.1zm-348.1 1.8c2.3 2.3 2.4 2.6 2.9 32.8.8 46.9.8 47.2 2.3 50.9 4.8 11.5 15.9 14.9 26.7 8 9.7-6.1 11.7-16 11.7-58.4 0-23.5.3-31.6 1.3-32.8 1.6-2.1 8.7-3 12.6-1.7 3 1.1 3.1 1.3 3.1 6.7 0 3.2.5 14.6 1 25.6 2.3 47.2-3.3 66-22.5 75.1-16.2 7.6-35.1 4.6-45.5-7.3-7.2-8.1-7.3-8.7-8-55.2-.3-22.8-.2-42.5.2-43.8.7-1.9 1.4-2.2 6.3-2.2 4.5 0 6 .4 7.9 2.3zm292.9-.1c3.2 1.5 3.7 2.1 3.7 5.1 0 7.1-3.9 8.6-22.4 8.7h-11.9l.5 29.7c.3 16.4.3 38.1-.1 48.3l-.6 18.5-3.8 1.9c-4.7 2.2-10.1 1.5-12.1-1.7-1.2-1.8-1.5-10.2-1.5-48 0-25.1-.3-46.2-.6-46.7-.3-.6-5-1-10.3-1-14.3-.1-21.2-3.2-21.2-9.5 0-3.9 1.7-6.2 5-6.8 1.4-.3 18-.4 37-.3 30.1.1 35 .3 38.3 1.8zm167 0c3.2 1.5 3.7 2.1 3.7 5.1 0 7.1-3.9 8.6-22.4 8.7h-11.9l.5 29.7c.3 16.4.3 38.1-.1 48.3l-.6 18.5-3.8 1.9c-4.7 2.2-10.1 1.5-12.1-1.7-1.2-1.8-1.5-10.2-1.5-48 0-25.1-.3-46.2-.6-46.7-.3-.6-5-1-10.3-1-14.3-.1-21.2-3.2-21.2-9.5 0-3.9 1.7-6.2 5-6.8 1.4-.3 18-.4 37-.3 30.1.1 35 .3 38.3 1.8zm-506 3.8c3.5 1.3 7.7 3.9 10.3 6.4 5.6 5.4 6.1 10.1 1.5 14.7-4.5 4.4-9.3 4.1-14.6-1.1-3.5-3.4-4.9-4.1-11.3-5.1-5.5-.9-8.2-.9-11.1 0-5.6 1.6-13.3 8.2-16.4 13.9-3.4 6.2-6.7 19.9-6.7 27.9 0 7.9 2.4 20.6 4.7 24.7 2.8 4.7 11.2 8.6 18.8 8.6 9.6 0 15-2.4 22.3-9.8 6.3-6.3 6.5-6.4 10.8-5.9 7.4.8 10.4 5.5 8.3 13-2.2 7.9-10.8 14.3-24.9 18.3-7.8 2.2-10.6 2.6-18.8 2.2-8.7-.3-10.4-.7-16-3.7-3.4-1.9-8.6-5.7-11.5-8.5-4.5-4.3-5.7-6.3-7.9-13.1-6.4-19.6-5.5-43 2.3-60.4 3.5-7.8 13.2-17.6 21.2-21.6 9.8-4.7 27.1-5 39-.5zM899 702.5v2.5H322v-5h577v2.5zm-41.2 13.4l41.3.1-.3 2.2-.3 2.3h-576l-.3-2.2c-.3-2.2-.2-2.3 15.5-2.5 12.7-.2 323.1-.1 520.1.1zm-489.9 58.7c12.3 1.8 16.1 3.4 21.3 8.8 5 5.1 11.4 18.1 13.6 27.6 2.3 10.3 2.3 45.9-.1 57.3-4.9 23.6-21.5 38.7-48.2 44-9.6 1.9-11.4 1.9-18.2.8-4.2-.7-8.2-1.5-9-1.8-1.9-.7-1.6-6.4.5-9.3 1.6-2.3 1.7-5.9 1.5-44.5-.2-37.4-1.3-66.8-2.9-79.2-.6-4-.5-4.2 2.3-4.6 7.1-1.1 29.4-.6 39.2.9zm260.9 2c5.7 2.8 9.7 7.6 10.8 13.2 1 4.9-1.6 4.1-6.7-1.9-4.6-5.5-10.4-8.8-15.5-8.9-4.8 0-14.6 5.5-19.8 11-5.8 6.2-10.8 16.4-14.3 29.5-2.5 9.4-2.7 11.3-2.7 33-.1 21.4.1 23.4 2.2 29.6 5.6 16.4 12.6 22.8 25.6 23.7 4.5.3 8.8 0 11.2-.8 6.3-2 12.8-7.4 14.9-12.2 3.5-8.1 7.5-10.6 7.5-4.6-.1 7.9-7.3 16.7-17.9 21.7-11.1 5.2-27.7 2.3-35.9-6.2-12.9-13.4-17.5-46.1-11.2-78.9 4.8-25.1 13.3-39.1 29-48.2 6-3.4 7-3.6 12-3.1 3 .3 7.9 1.7 10.8 3.1zm86.8-.7c19.3 9.1 28.4 29.3 28.4 63 0 20.6-4.2 39.5-12.2 55.4-7.2 14.5-23.5 23-36.3 19.2-6.8-2-15.3-8.2-19.1-13.7-9-13.3-13.2-32.1-14.1-62.8-.6-22.2.3-27.3 7.6-41.8 6.6-13.1 12.1-18.2 22.6-20.7 9.1-2.3 16.3-1.8 23.1 1.4zm115-2.1c.6.4 4.3 7 8.2 14.7 6.6 13 10.4 21.1 27.8 60.5 3.5 8 10.2 22.1 14.9 31.5l8.5 17V838v-61.3c0-1.2.8-1.7 2.8-1.7h2.7v67.3c-.1 37-.4 67.8-.9 68.5-2.3 3.7-4.3.9-15.3-21.1-6.2-12.2-12.5-25.6-14.1-29.7-2.8-7-21.3-47.4-28.5-62l-3.2-6.5-.8 22c-.4 12.1-.5 25.6-.2 30 .3 4.4 1 17.4 1.5 29 .6 11.5 1.3 24.2 1.6 28.2.8 8.9.1 12.3-2.7 12.3-1.1 0-2.2-.6-2.4-1.3-1.1-2.8-3-60.5-3-91.7-.1-18.4-.5-36.5-.9-40.3-.7-6.1-.6-6.7 1.1-6.7 1 0 2.3.4 2.9.8zm-330.1 2.9c.8 2.9 1.9 48.2 1.9 77.8 0 37.7-8.3 55.5-28 60.1-10.8 2.5-19.9.8-26.2-5-3.4-3-9.5-13.9-12.7-22.6l-2.8-7.5-.5-34.5c-.2-19-.1-42.3.3-51.8.7-15.7.9-17.2 2.5-17.2 1 0 2.1.8 2.3 1.7.3 1 .5 19.8.5 41.8 0 23.1.4 44.7 1.1 51 1 10.2 1.5 11.8 6.6 22.2 6.8 13.9 8.9 15.6 19.3 16.2 9.2.4 14.7-1.5 19.7-7.1 4.1-4.5 5.8-8 8.9-18.3 2-6.7 2.1-9.4 2.2-56.5.1-27.2.2-50.3.3-51.3.2-2.9 3.8-2.1 4.6 1zm305.5.8v3.5H783.3l.3 10.2c.1 5.7-.2 18.8-.7 29.3-.5 10.4-.6 34-.2 52.3l.6 33.4 8.3-.7c4.6-.4 9.9-.4 11.9-.1 2.9.6 3.5 1.1 3.5 3.2v2.5l-25.5-.3c-26.7-.3-27.4-.4-27.5-4.7 0-1.1 2-1.2 11.5-.7l11.5.7.2-42.8c.1-23.5.2-51.8.2-62.8l.1-20-11.7.3-11.8.3v-2.6c0-1.7.6-2.5 1.8-2.6.9-.1 11.2-.5 22.7-.9 11.6-.3 22.5-.7 24.3-.8 3-.2 3.2 0 3.2 3.3z"/><path d="M773.3 549.1c-4.4 1.3-15.3 11.6-18.5 17.6-7.4 13.6-5.6 38.4 3.8 52 4.6 6.6 7.6 8.3 15.1 8.3 15.1 0 22-6.4 27.1-25 6.2-22.3 4.5-38-5-47-6.7-6.3-14.3-8.3-22.5-5.9zM333.4 789.1c.4 5.7 1.1 34.1 1.5 63.1.5 37.5 1 53.1 1.8 53.9 1.6 1.6 14.2 1.2 22-.6 9.1-2.1 19.8-7.9 25.7-13.8 3.9-4 5.9-7.1 8.3-13.3 4.6-11.6 5.2-15.1 5.9-31.9.6-14.8-.7-29.5-3.6-39.5-2.1-7.4-8.5-18.4-11.9-20.7-7-4.7-15.3-6.5-33.5-7l-16.9-.6.7 10.4zM692.5 780.9c-6.1 1.6-7.5 2.5-11.3 6.7-4.8 5.5-9.5 14.5-11.3 21.9-1.9 7.6-1.6 49 .4 58 4.8 21.5 12.2 33.6 24.4 39.9 7.1 3.6 17.9.9 24.4-6.1 6.2-6.6 8.3-10.4 11.8-20.8 4.7-14.1 6.5-29.1 5.7-47.5-.7-17.6-2.3-26.6-6-33.8-3.2-6.3-13.1-17.1-17.3-18.9-4.4-1.8-12.4-1.6-20.8.6zM323.4 1021.9c-3.5 2.1-6.4 8.3-6.4 13.4.1 4.2 3.2 11 6.1 13.1 2.2 1.5 24.8 1.6 280.5 1.6h278.2l3.1-2.6c5.1-4.3 6.5-12.8 3.2-20.1-3.7-8 24.7-7.3-284.8-7.3-269.6 0-276.9.1-279.9 1.9z"/></svg>